<svg width="739" height="702" viewBox="0 0 739 702" fill="none" xmlns="http://www.w3.org/2000/svg">
<path d="M600.438 212.356C600.872 200.894 598.574 189.487 593.715 178.979C588.856 168.471 581.56 159.132 572.367 151.653C563.174 144.175 552.32 138.748 540.609 135.776C528.898 132.804 516.63 132.362 504.714 134.483C496.603 97.3747 474.214 64.4373 441.887 42.0562C409.561 19.6751 369.6 9.44473 329.752 13.3485C289.904 17.2523 253.008 35.012 226.217 63.1847C199.426 91.3573 184.649 127.936 184.75 165.828C154.126 165.828 124.756 177.335 103.101 197.818C81.4467 218.3 69.2813 246.08 69.2812 275.047C69.2813 304.014 81.4467 331.794 103.101 352.276C124.756 372.759 154.126 384.266 184.75 384.266H577.344C599.781 384.205 621.428 376.422 638.242 362.371C655.057 348.319 665.89 328.958 668.718 307.905C671.546 286.851 666.177 265.544 653.612 247.961C641.047 230.378 622.146 217.722 600.438 212.356Z" fill="#C3D2E7"/>
<path d="M577.345 384.266H184.751C168.614 384.266 152.656 381.067 137.906 374.874C123.156 368.682 109.942 359.634 99.1166 348.314C88.2911 336.994 80.0945 323.653 75.0553 309.152C70.0161 294.651 68.2463 279.313 69.8601 264.125C72.7322 291.159 86.1544 316.21 107.506 334.386C128.857 352.562 156.604 362.558 185.329 362.422H577.345C599.83 362.403 621.536 354.627 638.393 340.552C655.25 326.477 666.101 307.07 668.912 285.969C670.549 298.261 669.404 310.743 665.552 322.585C661.7 334.426 655.23 345.358 646.57 354.654C637.911 363.95 627.26 371.398 615.325 376.503C603.39 381.608 590.444 384.254 577.345 384.266Z" fill="#C7CDD8"/>
<path d="M369.5 690.078C382.254 690.078 392.594 680.298 392.594 668.234C392.594 656.17 382.254 646.391 369.5 646.391C356.746 646.391 346.406 656.17 346.406 668.234C346.406 680.298 356.746 690.078 369.5 690.078Z" fill="url(#paint0_linear)"/>
<path d="M207.844 690.078C220.598 690.078 230.938 680.298 230.938 668.234C230.938 656.17 220.598 646.391 207.844 646.391C195.089 646.391 184.75 656.17 184.75 668.234C184.75 680.298 195.089 690.078 207.844 690.078Z" fill="url(#paint1_linear)"/>
<path d="M531.156 690.078C543.911 690.078 554.25 680.298 554.25 668.234C554.25 656.17 543.911 646.391 531.156 646.391C518.402 646.391 508.062 656.17 508.062 668.234C508.062 680.298 518.402 690.078 531.156 690.078Z" fill="url(#paint2_linear)"/>
<path d="M704.359 690.078C717.114 690.078 727.453 680.298 727.453 668.234C727.453 656.17 717.114 646.391 704.359 646.391C691.605 646.391 681.266 656.17 681.266 668.234C681.266 680.298 691.605 690.078 704.359 690.078Z" fill="url(#paint3_linear)"/>
<path d="M34.6406 690.078C47.395 690.078 57.7344 680.298 57.7344 668.234C57.7344 656.17 47.395 646.391 34.6406 646.391C21.8863 646.391 11.5469 656.17 11.5469 668.234C11.5469 680.298 21.8863 690.078 34.6406 690.078Z" fill="url(#paint4_linear)"/>
<path d="M492.591 289.355L527.231 270.678L492.591 213.884L457.95 232.561C442.844 218.727 424.361 208.635 404.141 203.181V165.828H334.86V203.181C314.641 208.635 296.157 218.727 281.052 232.561L246.411 213.884L211.771 270.678L246.411 289.355C241.216 308.633 241.216 328.836 246.411 348.114L211.771 366.791L246.411 423.584L281.052 404.908C296.157 418.742 314.641 428.834 334.86 434.288V471.641H404.141V434.288C424.361 428.834 442.844 418.742 457.95 404.908L492.591 423.584L527.231 366.791L492.591 348.114C497.786 328.836 497.786 308.633 492.591 289.355Z" fill="url(#paint5_linear)"/>
<path d="M334.86 434.288C314.641 428.834 296.157 418.742 281.052 404.908L246.411 423.585L211.771 366.791L221.816 361.33L246.411 401.741L281.052 383.064C296.157 396.898 314.641 406.99 334.86 412.444V434.288ZM334.86 449.797H404.141V471.641H334.86V449.797ZM516.723 361.33L526.769 366.791L492.129 423.585L457.488 404.908C442.513 418.68 424.196 428.768 404.141 434.288V412.444C424.361 406.99 442.844 396.898 457.95 383.064L492.59 401.741L516.723 361.33Z" fill="#42455E"/>
<path d="M369.501 369.74C399.282 369.74 423.425 346.904 423.425 318.735C423.425 290.565 399.282 267.729 369.501 267.729C339.719 267.729 315.577 290.565 315.577 318.735C315.577 346.904 339.719 369.74 369.501 369.74Z" fill="url(#paint6_linear)"/>
<path d="M422.155 329.656C419.505 318.315 412.842 308.168 403.268 300.894C393.693 293.621 381.781 289.656 369.501 289.656C357.221 289.656 345.308 293.621 335.734 300.894C326.16 308.168 319.497 318.315 316.847 329.656C315.106 322.203 315.155 314.476 316.992 307.043C318.828 299.611 322.405 292.663 327.458 286.712C332.511 280.761 338.912 275.959 346.188 272.659C353.465 269.359 361.431 267.646 369.501 267.646C377.57 267.646 385.537 269.359 392.813 272.659C400.09 275.959 406.49 280.761 411.544 286.712C416.597 292.663 420.173 299.611 422.01 307.043C423.846 314.476 423.896 322.203 422.155 329.656V329.656Z" fill="#ADB3C4"/>
<path d="M369.501 256.807C356.552 256.807 343.894 260.439 333.127 267.244C322.361 274.049 313.969 283.72 309.014 295.036C304.058 306.352 302.762 318.803 305.288 330.816C307.814 342.829 314.05 353.863 323.206 362.524C332.362 371.184 344.028 377.082 356.728 379.472C369.428 381.861 382.592 380.635 394.555 375.948C406.519 371.26 416.744 363.323 423.938 353.139C431.132 342.955 434.972 330.983 434.972 318.735C434.941 302.319 428.033 286.585 415.762 274.977C403.49 263.37 386.855 256.836 369.501 256.807ZM369.501 358.818C361.119 358.818 352.926 356.467 345.957 352.063C338.989 347.658 333.557 341.398 330.35 334.074C327.142 326.749 326.303 318.69 327.938 310.915C329.573 303.139 333.609 295.997 339.536 290.391C345.462 284.786 353.013 280.968 361.233 279.421C369.454 277.875 377.974 278.669 385.718 281.702C393.461 284.736 400.08 289.874 404.736 296.465C409.393 303.057 411.878 310.807 411.878 318.735C411.847 329.356 407.373 339.535 399.432 347.046C391.492 354.557 380.731 358.789 369.501 358.818Z" fill="#520D0D"/>
<path d="M715.906 637.435V548.094C715.906 545.197 714.69 542.419 712.524 540.371C710.359 538.323 707.422 537.172 704.359 537.172H508.063V419.434L522.843 395.188H577.344C601.828 395.149 625.512 386.935 644.219 371.994C662.926 357.052 675.455 336.343 679.597 313.518C683.738 290.693 679.226 267.217 666.857 247.231C654.487 227.245 635.054 212.031 611.984 204.273C611.28 192.733 608.163 181.44 602.811 171.047C597.46 160.655 589.982 151.37 580.81 143.731C571.638 136.092 560.955 130.25 549.38 126.544C537.804 122.838 525.566 121.341 513.374 122.141C502.706 84.5729 478.253 51.8214 444.391 29.7465C410.529 7.67162 369.467 -2.28627 328.553 1.6546C287.639 5.59547 249.543 23.1779 221.08 51.256C192.618 79.3341 175.647 116.076 173.203 154.906C139.517 156.355 107.818 170.401 85.0806 193.956C62.3433 217.511 50.4298 248.645 51.961 280.508C53.4922 312.371 68.3427 342.354 93.2455 363.861C118.148 385.367 151.063 396.636 184.75 395.188H216.158L230.938 419.434V537.172H34.6407C31.5783 537.172 28.6413 538.323 26.4758 540.371C24.3104 542.419 23.0938 545.197 23.0938 548.094V637.435C15.3896 640.011 8.89631 645.081 4.76164 651.748C0.626966 658.414 -0.882883 666.249 0.498947 673.867C1.88078 681.485 6.06531 688.396 12.313 693.378C18.5606 698.36 26.4691 701.092 34.6407 701.092C42.8123 701.092 50.7208 698.36 56.9684 693.378C63.2161 688.396 67.4006 681.485 68.7824 673.867C70.1643 666.249 68.6544 658.414 64.5198 651.748C60.3851 645.081 53.8918 640.011 46.1876 637.435V559.016H242.484C245.547 559.016 248.484 557.865 250.649 555.817C252.815 553.769 254.031 550.99 254.031 548.094V432.213L279.55 418.342C282.437 420.636 285.554 422.929 288.672 425.004V591.781H207.844C204.781 591.781 201.844 592.932 199.679 594.98C197.513 597.028 196.297 599.807 196.297 602.703V637.435C188.593 640.011 182.099 645.081 177.965 651.748C173.83 658.414 172.32 666.249 173.702 673.867C175.084 681.485 179.268 688.396 185.516 693.378C191.764 698.36 199.672 701.092 207.844 701.092C216.015 701.092 223.924 698.36 230.172 693.378C236.419 688.396 240.604 681.485 241.986 673.867C243.367 666.249 241.858 658.414 237.723 651.748C233.588 645.081 227.095 640.011 219.391 637.435V613.625H300.219C303.281 613.625 306.218 612.474 308.384 610.426C310.549 608.378 311.766 605.6 311.766 602.703V437.783C315.576 439.421 319.387 440.95 323.313 442.261V471.641C323.313 474.537 324.529 477.315 326.695 479.364C328.86 481.412 331.797 482.563 334.859 482.563H357.953V637.435C350.249 640.011 343.756 645.081 339.621 651.748C335.486 658.414 333.977 666.249 335.358 673.867C336.74 681.485 340.925 688.396 347.172 693.378C353.42 698.36 361.329 701.092 369.5 701.092C377.672 701.092 385.58 698.36 391.828 693.378C398.075 688.396 402.26 681.485 403.642 673.867C405.024 666.249 403.514 658.414 399.379 651.748C395.244 645.081 388.751 640.011 381.047 637.435V482.563H404.141C407.203 482.563 410.14 481.412 412.306 479.364C414.471 477.315 415.688 474.537 415.688 471.641V442.261C419.614 440.95 423.424 439.421 427.234 437.783V602.703C427.234 605.6 428.451 608.378 430.616 610.426C432.782 612.474 435.719 613.625 438.781 613.625H519.609V637.435C511.905 640.011 505.412 645.081 501.277 651.748C497.143 658.414 495.633 666.249 497.015 673.867C498.396 681.485 502.581 688.396 508.829 693.378C515.076 698.36 522.985 701.092 531.156 701.092C539.328 701.092 547.236 698.36 553.484 693.378C559.732 688.396 563.916 681.485 565.298 673.867C566.68 666.249 565.17 658.414 561.035 651.748C556.901 645.081 550.407 640.011 542.703 637.435V602.703C542.703 599.807 541.487 597.028 539.321 594.98C537.156 592.932 534.219 591.781 531.156 591.781H450.328V425.004C453.446 422.929 456.564 420.636 459.45 418.342L484.969 432.213V548.094C484.969 550.99 486.185 553.769 488.351 555.817C490.516 557.865 493.453 559.016 496.516 559.016H692.813V637.435C685.108 640.011 678.615 645.081 674.48 651.748C670.346 658.414 668.836 666.249 670.218 673.867C671.6 681.485 675.784 688.396 682.032 693.378C688.279 698.36 696.188 701.092 704.359 701.092C712.531 701.092 720.44 698.36 726.687 693.378C732.935 688.396 737.119 681.485 738.501 673.867C739.883 666.249 738.373 658.414 734.239 651.748C730.104 645.081 723.611 640.011 715.906 637.435ZM34.6407 679.156C31.5783 679.156 28.6413 678.006 26.4758 675.957C24.3104 673.909 23.0938 671.131 23.0938 668.234C23.0938 665.338 24.3104 662.56 26.4758 660.511C28.6413 658.463 31.5783 657.313 34.6407 657.313C37.7031 657.313 40.6401 658.463 42.8056 660.511C44.971 662.56 46.1876 665.338 46.1876 668.234C46.1876 671.131 44.971 673.909 42.8056 675.957C40.6401 678.006 37.7031 679.156 34.6407 679.156ZM207.844 679.156C204.781 679.156 201.844 678.006 199.679 675.957C197.513 673.909 196.297 671.131 196.297 668.234C196.297 665.338 197.513 662.56 199.679 660.511C201.844 658.463 204.781 657.313 207.844 657.313C210.906 657.313 213.843 658.463 216.009 660.511C218.174 662.56 219.391 665.338 219.391 668.234C219.391 671.131 218.174 673.909 216.009 675.957C213.843 678.006 210.906 679.156 207.844 679.156ZM369.5 679.156C366.438 679.156 363.501 678.006 361.335 675.957C359.17 673.909 357.953 671.131 357.953 668.234C357.953 665.338 359.17 662.56 361.335 660.511C363.501 658.463 366.438 657.313 369.5 657.313C372.563 657.313 375.5 658.463 377.665 660.511C379.83 662.56 381.047 665.338 381.047 668.234C381.047 671.131 379.83 673.909 377.665 675.957C375.5 678.006 372.563 679.156 369.5 679.156ZM531.156 679.156C528.094 679.156 525.157 678.006 522.991 675.957C520.826 673.909 519.609 671.131 519.609 668.234C519.609 665.338 520.826 662.56 522.991 660.511C525.157 658.463 528.094 657.313 531.156 657.313C534.219 657.313 537.156 658.463 539.321 660.511C541.487 662.56 542.703 665.338 542.703 668.234C542.703 671.131 541.487 673.909 539.321 675.957C537.156 678.006 534.219 679.156 531.156 679.156ZM184.75 373.344C157.188 373.344 130.755 362.988 111.266 344.553C91.7771 326.119 80.8282 301.117 80.8282 275.047C80.8282 248.977 91.7771 223.975 111.266 205.541C130.755 187.106 157.188 176.75 184.75 176.75C187.812 176.75 190.749 175.599 192.915 173.551C195.08 171.503 196.297 168.725 196.297 165.828C196.307 130.726 210.064 96.8717 234.912 70.7994C259.76 44.7272 293.938 28.2854 330.849 24.6475C367.76 21.0096 404.788 30.4334 434.785 51.1002C464.782 71.7669 485.622 102.211 493.283 136.558C493.871 139.349 495.588 141.812 498.068 143.424C500.549 145.036 503.596 145.668 506.561 145.186C516.686 143.348 527.117 143.67 537.094 146.13C547.07 148.589 556.341 153.123 564.229 159.402C572.117 165.681 578.424 173.546 582.691 182.423C586.957 191.301 589.075 200.967 588.891 210.717C588.33 213.462 588.904 216.306 590.493 218.663C592.083 221.02 594.567 222.71 597.435 223.386C616.02 228.393 632.094 239.533 642.743 254.785C653.391 270.038 657.911 288.394 655.481 306.527C653.052 324.66 643.834 341.37 629.5 353.628C615.165 365.886 596.662 372.88 577.344 373.344C529.886 373.344 535.891 373.344 536.814 372.252C538.32 369.744 538.715 366.775 537.915 363.992C537.115 361.209 535.183 358.839 532.542 357.398L505.638 342.653C508.872 326.854 508.872 310.615 505.638 294.816L532.542 280.071C535.183 278.63 537.115 276.26 537.915 273.477C538.715 270.694 538.32 267.725 536.814 265.217L502.174 208.423C501.41 207.181 500.394 206.094 499.185 205.223C497.976 204.353 496.597 203.717 495.127 203.352C493.657 202.986 492.126 202.899 490.621 203.095C489.115 203.29 487.665 203.765 486.354 204.492L459.45 219.127C446.508 208.722 431.681 200.618 415.688 195.208V165.828C415.688 162.932 414.471 160.154 412.306 158.105C410.14 156.057 407.203 154.906 404.141 154.906H334.859C331.797 154.906 328.86 156.057 326.695 158.105C324.529 160.154 323.313 162.932 323.313 165.828V195.208C307.319 200.618 292.492 208.722 279.55 219.127L252.646 204.492C251.335 203.765 249.885 203.29 248.38 203.095C246.874 202.899 245.343 202.986 243.873 203.352C242.404 203.717 241.025 204.353 239.815 205.223C238.606 206.094 237.59 207.181 236.826 208.423C190.639 283.894 188.099 270.132 233.362 294.816C230.128 310.615 230.128 326.854 233.362 342.653C204.611 358.381 202.648 358.272 201.031 363.951C197.798 375.419 213.964 373.344 184.75 373.344ZM450.328 397.044C415.688 427.953 392.594 417.905 392.594 434.288V460.719H346.406C346.406 434.288 348.6 426.533 337.977 423.694C292.367 411.461 290.288 387.215 275.278 395.406L251.029 408.621L227.935 370.832C252.299 357.507 260.382 355.541 257.611 345.384C252.874 327.9 252.874 309.569 257.611 292.085C260.498 281.163 249.99 278.651 227.935 266.637L251.029 228.847L275.278 242.281C290.058 250.363 293.06 226.008 337.977 213.994C348.6 211.154 346.406 203.072 346.406 176.969H392.594V203.399C392.594 219.455 416.611 210.062 450.328 240.643C458.065 247.742 463.261 242.827 488.433 229.066L511.527 266.856C465.916 291.321 484.969 277.231 484.969 318.734C484.969 360.238 465.801 346.039 511.065 370.832L487.971 408.621C463.723 395.188 457.834 389.836 450.328 397.044ZM704.359 679.156C701.297 679.156 698.36 678.006 696.195 675.957C694.029 673.909 692.813 671.131 692.813 668.234C692.813 665.338 694.029 662.56 696.195 660.511C698.36 658.463 701.297 657.313 704.359 657.313C707.422 657.313 710.359 658.463 712.524 660.511C714.69 662.56 715.906 665.338 715.906 668.234C715.906 671.131 714.69 673.909 712.524 675.957C710.359 678.006 707.422 679.156 704.359 679.156Z" fill="#284057"/>
<defs>
<linearGradient id="paint0_linear" x1="369.5" y1="690.078" x2="369.5" y2="646.391" gradientUnits="userSpaceOnUse">
<stop stop-color="#F9C202"/>
<stop offset="0.979167" stop-color="#50D755"/>
</linearGradient>
<linearGradient id="paint1_linear" x1="1016.12" y1="646.391" x2="1016.12" y2="646.391" gradientUnits="userSpaceOnUse">
<stop stop-color="#7AA8D7"/>
<stop offset="1" stop-color="#C3D2E7"/>
</linearGradient>
<linearGradient id="paint2_linear" x1="2632.69" y1="646.391" x2="2632.69" y2="646.391" gradientUnits="userSpaceOnUse">
<stop stop-color="#7AA8D7"/>
<stop offset="1" stop-color="#C3D2E7"/>
</linearGradient>
<linearGradient id="paint3_linear" x1="3498.7" y1="646.391" x2="3498.7" y2="646.391" gradientUnits="userSpaceOnUse">
<stop stop-color="#E1173B"/>
<stop offset="1" stop-color="#D90E0E"/>
</linearGradient>
<linearGradient id="paint4_linear" x1="11.5469" y1="668.234" x2="57.7344" y2="668.234" gradientUnits="userSpaceOnUse">
<stop offset="0.786458" stop-color="#7AD78E"/>
<stop offset="1" stop-color="#C6EBC9"/>
</linearGradient>
<linearGradient id="paint5_linear" x1="369.501" y1="471.641" x2="369.501" y2="165.828" gradientUnits="userSpaceOnUse">
<stop stop-color="#EB0101" stop-opacity="0.99"/>
<stop offset="0.395833" stop-color="#5341C1"/>
</linearGradient>
<linearGradient id="paint6_linear" x1="369.501" y1="369.74" x2="369.501" y2="267.729" gradientUnits="userSpaceOnUse">
<stop stop-color="#A0A6BA"/>
<stop offset="1" stop-color="#C6CCDA"/>
</linearGradient>
</defs>
</svg>
